# xmcd
#
# Track frame offsets:
# 150
# 12761
# 28312
# 41428
# 63511
# 83362
# 99709
# 114956
# 146462
# 163434
# 181782
# 196558
#
# Disc length: 2929 seconds
#
#
# Revision: 0
# Processed by: cddbd v1.5.2PL0 Copyright (c) Steve Scherf et al.
# Submitted via: FreeRIP 2.951 
#
DISCID=900b6f0c
DTITLE=pat mcmanus - in my own time
DYEAR=2007
DGENRE=Blues
TTITLE0=got the right
TTITLE1=low down dirty blues
TTITLE2=juggernaut
TTITLE3=same old story
TTITLE4=return of the g man
TTITLE5=back in the saddle
TTITLE6=orinary man
TTITLE7=foul
TTITLE8=just got back today
TTITLE9=say goodbye
TTITLE10=e mail blues
TTITLE11=just for shannon
EXTD=
EXTT0=
EXTT1=
EXTT2=
EXTT3=
EXTT4=
EXTT5=
EXTT6=
EXTT7=
EXTT8=
EXTT9=
EXTT10=
EXTT11=
PLAYORDER=
